<?xml version="1.0" encoding="UTF-8" standalone="no"?>
<!DOCTYPE svg PUBLIC "-//W3C//DTD SVG 1.1//EN"
 "http://www.w3.org/Graphics/SVG/1.1/DTD/svg11.dtd">
<!-- Generated by graphviz version 2.40.1 (20161225.0304)
 -->
<!-- Title: G Pages: 1 -->
<svg width="592pt" height="546pt"
 viewBox="0.00 0.00 591.69 546.00" xmlns="http://www.w3.org/2000/svg" xmlns:xlink="http://www.w3.org/1999/xlink">
<g id="graph0" class="graph" transform="scale(1 1) rotate(0) translate(4 542)">
<title>G</title>
<polygon fill="#ffffff" stroke="transparent" points="-4,4 -4,-542 587.6897,-542 587.6897,4 -4,4"/>
<g id="clust1" class="cluster">
<title>cluster_Global</title>
<polygon fill="none" stroke="#000000" points="8,-8 8,-530 575.6897,-530 575.6897,-8 8,-8"/>
<text text-anchor="middle" x="291.8449" y="-517.2" font-family="Times,serif" font-size="11.00" fill="#c0c0c0">Global</text>
</g>
<g id="clust2" class="cluster">
<title>cluster_\takisrs</title>
<polygon fill="none" stroke="#000000" points="187.6897,-16 187.6897,-502 567.6897,-502 567.6897,-16 187.6897,-16"/>
<text text-anchor="middle" x="377.6897" y="-489.2" font-family="Times,serif" font-size="11.00" fill="#c0c0c0">takisrs</text>
</g>
<g id="clust3" class="cluster">
<title>cluster_\takisrs\Controllers</title>
<polygon fill="none" stroke="#000000" points="385.6897,-294 385.6897,-474 559.6897,-474 559.6897,-294 385.6897,-294"/>
<text text-anchor="middle" x="472.6897" y="-461.2" font-family="Times,serif" font-size="11.00" fill="#c0c0c0">Controllers</text>
</g>
<g id="clust4" class="cluster">
<title>cluster_\takisrs\Core</title>
<polygon fill="none" stroke="#000000" points="195.6897,-24 195.6897,-474 329.6897,-474 329.6897,-24 195.6897,-24"/>
<text text-anchor="middle" x="262.6897" y="-461.2" font-family="Times,serif" font-size="11.00" fill="#c0c0c0">Core</text>
</g>
<g id="clust5" class="cluster">
<title>cluster_\takisrs\Helpers</title>
<polygon fill="none" stroke="#000000" points="412.6897,-214 412.6897,-286 532.6897,-286 532.6897,-214 412.6897,-214"/>
<text text-anchor="middle" x="472.6897" y="-273.2" font-family="Times,serif" font-size="11.00" fill="#c0c0c0">Helpers</text>
</g>
<g id="clust6" class="cluster">
<title>cluster_\takisrs\Models</title>
<polygon fill="none" stroke="#000000" points="419.1897,-80 419.1897,-206 526.1897,-206 526.1897,-80 419.1897,-80"/>
<text text-anchor="middle" x="472.6897" y="-193.2" font-family="Times,serif" font-size="11.00" fill="#c0c0c0">Models</text>
</g>
<!-- \\takisrs\\Controllers\\ApplicationController -->
<g id="node1" class="node">
<title>\\takisrs\\Controllers\\ApplicationController</title>
<polygon fill="none" stroke="#000000" points="551.6897,-446 393.6897,-446 393.6897,-410 551.6897,-410 551.6897,-446"/>
<text text-anchor="middle" x="472.6897" y="-425.2" font-family="Courier,monospace" font-size="11.00" fill="#000000">ApplicationController</text>
</g>
<!-- \\takisrs\\Core\\Controller -->
<g id="node5" class="node">
<title>\\takisrs\\Core\\Controller</title>
<polygon fill="none" stroke="#000000" points="304.6897,-392 220.6897,-392 220.6897,-356 304.6897,-356 304.6897,-392"/>
<text text-anchor="middle" x="262.6897" y="-371.2" font-family="Courier,monospace" font-size="11.00" fill="#000000">Controller</text>
</g>
<!-- \\takisrs\\Controllers\\ApplicationController&#45;&gt;\\takisrs\\Core\\Controller -->
<g id="edge1" class="edge">
<title>\\takisrs\\Controllers\\ApplicationController&#45;&gt;\\takisrs\\Core\\Controller</title>
<path fill="none" stroke="#000000" d="M402.4708,-409.9437C373.8185,-402.576 341.2707,-394.2065 314.7955,-387.3986"/>
<polygon fill="none" stroke="#000000" points="315.5234,-383.972 304.9668,-384.8712 313.78,-390.7515 315.5234,-383.972"/>
</g>
<!-- \\takisrs\\Controllers\\AuthController -->
<g id="node2" class="node">
<title>\\takisrs\\Controllers\\AuthController</title>
<polygon fill="none" stroke="#000000" points="528.1897,-392 417.1897,-392 417.1897,-356 528.1897,-356 528.1897,-392"/>
<text text-anchor="middle" x="472.6897" y="-371.2" font-family="Courier,monospace" font-size="11.00" fill="#000000">AuthController</text>
</g>
<!-- \\takisrs\\Controllers\\AuthController&#45;&gt;\\takisrs\\Core\\Controller -->
<g id="edge2" class="edge">
<title>\\takisrs\\Controllers\\AuthController&#45;&gt;\\takisrs\\Core\\Controller</title>
<path fill="none" stroke="#000000" d="M416.9649,-374C385.4148,-374 346.1885,-374 315.1855,-374"/>
<polygon fill="none" stroke="#000000" points="315.0097,-370.5001 305.0097,-374 315.0096,-377.5001 315.0097,-370.5001"/>
</g>
<!-- \\takisrs\\Controllers\\UserController -->
<g id="node3" class="node">
<title>\\takisrs\\Controllers\\UserController</title>
<polygon fill="none" stroke="#000000" points="528.1897,-338 417.1897,-338 417.1897,-302 528.1897,-302 528.1897,-338"/>
<text text-anchor="middle" x="472.6897" y="-317.2" font-family="Courier,monospace" font-size="11.00" fill="#000000">UserController</text>
</g>
<!-- \\takisrs\\Controllers\\UserController&#45;&gt;\\takisrs\\Core\\Controller -->
<g id="edge3" class="edge">
<title>\\takisrs\\Controllers\\UserController&#45;&gt;\\takisrs\\Core\\Controller</title>
<path fill="none" stroke="#000000" d="M416.9649,-334.3292C385.2777,-342.4774 345.8473,-352.6166 314.7816,-360.6049"/>
<polygon fill="none" stroke="#000000" points="313.8229,-357.2375 305.0097,-363.1177 315.5663,-364.017 313.8229,-357.2375"/>
</g>
<!-- \\takisrs\\Core\\Authenticator -->
<g id="node4" class="node">
<title>\\takisrs\\Core\\Authenticator</title>
<polygon fill="none" stroke="#000000" points="314.6897,-446 210.6897,-446 210.6897,-410 314.6897,-410 314.6897,-446"/>
<text text-anchor="middle" x="262.6897" y="-425.2" font-family="Courier,monospace" font-size="11.00" fill="#000000">Authenticator</text>
</g>
<!-- \\takisrs\\Core\\HttpException -->
<g id="node6" class="node">
<title>\\takisrs\\Core\\HttpException</title>
<polygon fill="none" stroke="#000000" points="314.6897,-338 210.6897,-338 210.6897,-302 314.6897,-302 314.6897,-338"/>
<text text-anchor="middle" x="262.6897" y="-317.2" font-family="Courier,monospace" font-size="11.00" fill="#000000">HttpException</text>
</g>
<!-- Exception -->
<g id="node16" class="node">
<title>Exception</title>
<ellipse fill="none" stroke="#000000" cx="73.8449" cy="-320" rx="57.6901" ry="18"/>
<text text-anchor="middle" x="73.8449" y="-316.3" font-family="Times,serif" font-size="14.00" fill="#c0c0c0">Exception</text>
</g>
<!-- \\takisrs\\Core\\HttpException&#45;&gt;Exception -->
<g id="edge4" class="edge">
<title>\\takisrs\\Core\\HttpException&#45;&gt;Exception</title>
<path fill="none" stroke="#000000" d="M210.5871,-320C189.3801,-320 164.5821,-320 141.9703,-320"/>
<polygon fill="none" stroke="#000000" points="141.7558,-316.5001 131.7558,-320 141.7557,-323.5001 141.7558,-316.5001"/>
</g>
<!-- \\takisrs\\Core\\Model -->
<g id="node7" class="node">
<title>\\takisrs\\Core\\Model</title>
<polygon fill="none" stroke="#000000" points="289.6897,-284 235.6897,-284 235.6897,-248 289.6897,-248 289.6897,-284"/>
<text text-anchor="middle" x="262.6897" y="-263.2" font-family="Courier,monospace" font-size="11.00" fill="#000000">Model</text>
</g>
<!-- \\takisrs\\Core\\MySQLConnection -->
<g id="node8" class="node">
<title>\\takisrs\\Core\\MySQLConnection</title>
<polygon fill="none" stroke="#000000" points="321.6897,-230 203.6897,-230 203.6897,-194 321.6897,-194 321.6897,-230"/>
<text text-anchor="middle" x="262.6897" y="-209.2" font-family="Courier,monospace" font-size="11.00" fill="#000000">MySQLConnection</text>
</g>
<!-- \\takisrs\\Core\\Request -->
<g id="node9" class="node">
<title>\\takisrs\\Core\\Request</title>
<polygon fill="none" stroke="#000000" points="294.6897,-176 230.6897,-176 230.6897,-140 294.6897,-140 294.6897,-176"/>
<text text-anchor="middle" x="262.6897" y="-155.2" font-family="Courier,monospace" font-size="11.00" fill="#000000">Request</text>
</g>
<!-- \\takisrs\\Core\\Response -->
<g id="node10" class="node">
<title>\\takisrs\\Core\\Response</title>
<polygon fill="none" stroke="#000000" points="298.1897,-122 227.1897,-122 227.1897,-86 298.1897,-86 298.1897,-122"/>
<text text-anchor="middle" x="262.6897" y="-101.2" font-family="Courier,monospace" font-size="11.00" fill="#000000">Response</text>
</g>
<!-- \\takisrs\\Core\\Router -->
<g id="node11" class="node">
<title>\\takisrs\\Core\\Router</title>
<polygon fill="none" stroke="#000000" points="291.1897,-68 234.1897,-68 234.1897,-32 291.1897,-32 291.1897,-68"/>
<text text-anchor="middle" x="262.6897" y="-47.2" font-family="Courier,monospace" font-size="11.00" fill="#000000">Router</text>
</g>
<!-- \\takisrs\\Helpers\\EmailTemplate -->
<g id="node12" class="node">
<title>\\takisrs\\Helpers\\EmailTemplate</title>
<polygon fill="none" stroke="#000000" points="524.6897,-258 420.6897,-258 420.6897,-222 524.6897,-222 524.6897,-258"/>
<text text-anchor="middle" x="472.6897" y="-237.2" font-family="Courier,monospace" font-size="11.00" fill="#000000">EmailTemplate</text>
</g>
<!-- \\takisrs\\Models\\Application -->
<g id="node13" class="node">
<title>\\takisrs\\Models\\Application</title>
<polygon fill="none" stroke="#000000" points="518.1897,-178 427.1897,-178 427.1897,-142 518.1897,-142 518.1897,-178"/>
<text text-anchor="middle" x="472.6897" y="-157.2" font-family="Courier,monospace" font-size="11.00" fill="#000000">Application</text>
</g>
<!-- \\takisrs\\Models\\Application&#45;&gt;\\takisrs\\Core\\Model -->
<g id="edge5" class="edge">
<title>\\takisrs\\Models\\Application&#45;&gt;\\takisrs\\Core\\Model</title>
<path fill="none" stroke="#000000" d="M440.927,-178.1387C405.7406,-198.1264 351.1416,-228.7985 329.6897,-239 319.9056,-243.6529 309.0949,-248.2402 299.0648,-252.2764"/>
<polygon fill="none" stroke="#000000" points="297.7587,-249.0291 289.7465,-255.9613 300.3329,-255.5386 297.7587,-249.0291"/>
</g>
<!-- \\takisrs\\Models\\User -->
<g id="node14" class="node">
<title>\\takisrs\\Models\\User</title>
<polygon fill="none" stroke="#000000" points="499.6897,-124 445.6897,-124 445.6897,-88 499.6897,-88 499.6897,-124"/>
<text text-anchor="middle" x="472.6897" y="-103.2" font-family="Courier,monospace" font-size="11.00" fill="#000000">User</text>
</g>
<!-- \\takisrs\\Models\\User&#45;&gt;\\takisrs\\Core\\Model -->
<g id="edge6" class="edge">
<title>\\takisrs\\Models\\User&#45;&gt;\\takisrs\\Core\\Model</title>
<path fill="none" stroke="#000000" d="M445.3823,-108.9656C426.7992,-112.2058 402.6039,-118.9591 385.6897,-133 344.6932,-167.0323 369.2541,-203.3128 329.6897,-239 321.134,-246.7173 310.0898,-252.3729 299.4452,-256.4526"/>
<polygon fill="none" stroke="#000000" points="298.1689,-253.1906 289.8648,-259.7703 300.4596,-259.8052 298.1689,-253.1906"/>
</g>
<!-- \\takisrs\\VacationApp -->
<g id="node15" class="node">
<title>\\takisrs\\VacationApp</title>
<polygon fill="none" stroke="#000000" points="518.1897,-65 427.1897,-65 427.1897,-29 518.1897,-29 518.1897,-65"/>
<text text-anchor="middle" x="472.6897" y="-44.2" font-family="Courier,monospace" font-size="11.00" fill="#000000">VacationApp</text>
</g>
</g>
</svg>
