<svg xmlns="http://www.w3.org/2000/svg" xmlns:xlink="http://www.w3.org/1999/xlink" width="250.02" height="33.779" viewBox="0 0 250.02 33.779"><defs><linearGradient id="a" y1="0.5" x2="1" y2="0.5" gradientUnits="objectBoundingBox"><stop offset="0" stop-color="#e46026"/><stop offset="1" stop-color="#f79421"/></linearGradient></defs><g transform="translate(-95 -156.865)"><path d="M95,171.086v19h24.448v-5.132h-18.71v-8.772h16.377v-5.132L95,171.086Zm231.777-5.123a3.467,3.467,0,0,1,1.4-2.776,6.034,6.034,0,0,1,3.919-1.143,12.01,12.01,0,0,1,4.432.863,20.026,20.026,0,0,1,4.432,2.5l3.079-4.339a19.233,19.233,0,0,0-5.389-3.056,18.711,18.711,0,0,0-6.462-1.05,14.238,14.238,0,0,0-4.479.677,10.3,10.3,0,0,0-3.523,1.937,9.11,9.11,0,0,0-2.309,3.009,8.883,8.883,0,0,0-.84,3.9,9.3,9.3,0,0,0,.723,3.872,7.416,7.416,0,0,0,2.1,2.706,11.809,11.809,0,0,0,3.406,1.866,39.156,39.156,0,0,0,4.642,1.353,37.751,37.751,0,0,1,3.709,1.073,9.375,9.375,0,0,1,2.24,1.1,3.174,3.174,0,0,1,1.12,1.283,3.952,3.952,0,0,1,.3,1.586,3.54,3.54,0,0,1-1.563,3.032,7.116,7.116,0,0,1-4.223,1.12,13.232,13.232,0,0,1-5.505-1.1,20.065,20.065,0,0,1-4.806-3.149l-3.453,4.106a19.743,19.743,0,0,0,6.392,3.943,20.6,20.6,0,0,0,7.232,1.283,16.129,16.129,0,0,0,4.712-.653,10.632,10.632,0,0,0,3.686-1.913,8.8,8.8,0,0,0,2.4-3.079,9.577,9.577,0,0,0,.863-4.152,8.7,8.7,0,0,0-.677-3.569,7.65,7.65,0,0,0-1.983-2.66,11.342,11.342,0,0,0-3.289-1.936,36.65,36.65,0,0,0-4.549-1.446q-2.333-.56-3.849-1.073a9.482,9.482,0,0,1-2.38-1.12,3.44,3.44,0,0,1-1.19-1.306,3.95,3.95,0,0,1-.326-1.68Zm-18.34-8.538v32.66h5.739v-32.66Zm-24.359,8.538a3.467,3.467,0,0,1,1.4-2.776,6.035,6.035,0,0,1,3.919-1.143,12.011,12.011,0,0,1,4.432.863,20.034,20.034,0,0,1,4.432,2.5l3.079-4.339a19.231,19.231,0,0,0-5.389-3.056,18.711,18.711,0,0,0-6.462-1.05,14.236,14.236,0,0,0-4.479.677,10.29,10.29,0,0,0-3.523,1.937,9.116,9.116,0,0,0-2.31,3.009,8.885,8.885,0,0,0-.84,3.9,9.3,9.3,0,0,0,.723,3.872,7.414,7.414,0,0,0,2.1,2.706,11.808,11.808,0,0,0,3.406,1.866,39.171,39.171,0,0,0,4.642,1.353,37.773,37.773,0,0,1,3.709,1.073,9.37,9.37,0,0,1,2.239,1.1,3.173,3.173,0,0,1,1.12,1.283,3.955,3.955,0,0,1,.3,1.586,3.539,3.539,0,0,1-1.563,3.032,7.117,7.117,0,0,1-4.223,1.12,13.23,13.23,0,0,1-5.505-1.1,20.057,20.057,0,0,1-4.806-3.149l-3.453,4.106a19.743,19.743,0,0,0,6.392,3.943,20.6,20.6,0,0,0,7.232,1.283,16.13,16.13,0,0,0,4.713-.653,10.634,10.634,0,0,0,3.686-1.913,8.8,8.8,0,0,0,2.4-3.079,9.578,9.578,0,0,0,.863-4.152,8.7,8.7,0,0,0-.676-3.569,7.65,7.65,0,0,0-1.983-2.66,11.346,11.346,0,0,0-3.289-1.936,36.652,36.652,0,0,0-4.549-1.446q-2.333-.56-3.849-1.073a9.483,9.483,0,0,1-2.38-1.12,3.435,3.435,0,0,1-1.19-1.306,3.947,3.947,0,0,1-.326-1.68Zm-10.6,7.745a17.083,17.083,0,0,0-1.26-6.532,16.208,16.208,0,0,0-8.865-8.982,17.466,17.466,0,0,0-6.905-1.33,17.02,17.02,0,0,0-12.317,5.015,16.41,16.41,0,0,0-3.546,5.389,17.569,17.569,0,0,0,0,13.064,16.208,16.208,0,0,0,8.865,8.981,17.466,17.466,0,0,0,6.905,1.33,17.017,17.017,0,0,0,12.317-5.016,16.4,16.4,0,0,0,3.546-5.389,17.085,17.085,0,0,0,1.26-6.532Zm-6.019.093a12.43,12.43,0,0,1-.817,4.5,11.373,11.373,0,0,1-2.263,3.686,10.565,10.565,0,0,1-3.476,2.473,11.293,11.293,0,0,1-8.935-.023,10.879,10.879,0,0,1-3.523-2.52,11.434,11.434,0,0,1-2.286-3.709,12.82,12.82,0,0,1,0-9,11.368,11.368,0,0,1,2.263-3.686,10.56,10.56,0,0,1,3.476-2.473,11.288,11.288,0,0,1,8.935.023,10.884,10.884,0,0,1,3.523,2.519,11.439,11.439,0,0,1,2.286,3.709,12.431,12.431,0,0,1,.817,4.5Zm-39.756,6.205-17.5-22.582h-5.319v32.66h5.646V166.85l18.009,23.235h4.806v-32.66h-5.645v22.582Zm-29.3,5.552V171.842H184.5v4.992h8.352v6.112a12.3,12.3,0,0,1-3.523,1.8,13.711,13.711,0,0,1-4.363.677,11.253,11.253,0,0,1-4.549-.887,10.528,10.528,0,0,1-3.5-2.45,10.817,10.817,0,0,1-2.263-3.709,13.353,13.353,0,0,1-.793-4.666,12.25,12.25,0,0,1,.817-4.479,11.943,11.943,0,0,1,2.24-3.686,10.419,10.419,0,0,1,3.359-2.5,9.7,9.7,0,0,1,4.176-.91,14.422,14.422,0,0,1,2.823.257,12.7,12.7,0,0,1,2.356.7,11.855,11.855,0,0,1,2.053,1.1,20.619,20.619,0,0,1,1.913,1.446l3.639-4.339a20.73,20.73,0,0,0-2.589-1.89,16.352,16.352,0,0,0-2.823-1.376,17.964,17.964,0,0,0-3.243-.863,22.884,22.884,0,0,0-3.9-.3,16.8,16.8,0,0,0-6.789,1.353,16.342,16.342,0,0,0-8.818,9.052,17.371,17.371,0,0,0-1.236,6.532,18.046,18.046,0,0,0,1.213,6.672,15.518,15.518,0,0,0,8.772,8.888,18.142,18.142,0,0,0,6.952,1.283,20.652,20.652,0,0,0,4.106-.4,20.066,20.066,0,0,0,6.835-2.73,24.384,24.384,0,0,0,2.683-1.959Zm-42.6-28.134v32.66h5.739v-32.66Zm-5.229,10.964a11.35,11.35,0,0,0-.864-4.526,9.781,9.781,0,0,0-2.473-3.453,10.959,10.959,0,0,0-3.919-2.216,16.252,16.252,0,0,0-5.156-.77H125.284v5.226H137.7a8.214,8.214,0,0,1,5.132,1.47,5.213,5.213,0,0,1,1.913,4.409,5.329,5.329,0,0,1-1.889,4.269,7.7,7.7,0,0,1-5.156,1.61c-4.144,0-8.261.013-12.411.013v15.664h5.739v-10.5h6.485a17.416,17.416,0,0,0,5.085-.723,12.477,12.477,0,0,0,4.153-2.123,9.973,9.973,0,0,0,2.8-3.5A10.919,10.919,0,0,0,150.573,168.389Z" transform="translate(0 0)" fill="#216bb2"/><rect width="24.522" height="5.132" transform="translate(95 157.425)" fill="url(#a)"/></g></svg>