<svg id="Layer_1" data-name="Layer 1" xmlns="http://www.w3.org/2000/svg" xmlns:xlink="http://www.w3.org/1999/xlink" viewBox="0 0 964.22 116"><defs><style>.cls-1{fill:#216bb2;}.cls-2{fill:url(#linear-gradient);}.cls-3{fill:none;stroke:#216bb2;stroke-miterlimit:10;stroke-width:17px;}</style><linearGradient id="linear-gradient" x1="12.62" y1="720.4" x2="15.94" y2="720.4" gradientTransform="matrix(24.52, 0, 0, -5.13, -195.3, 3709.46)" gradientUnits="userSpaceOnUse"><stop offset="0" stop-color="#e46026"/><stop offset="1" stop-color="#f79421"/></linearGradient></defs><title>demo</title><path class="cls-1" d="M286,287.77v63h81.07v-17H305V304.67h54.3v-17Z" transform="translate(-171.78 -238.61)"/><rect class="cls-2" x="114.2" y="3.86" width="81.31" height="17.02"/><path class="cls-1" d="M171.78,241.22h42.77c32.13,0,53.37,21,53.37,53.44,0,32.07-20.65,56-54.21,56H171.78Zm20.94,92.65h19.93c23.07,0,33.57-16.58,33.57-39.07,0-19.15-9.73-36.79-33.46-36.79h-20Z" transform="translate(-171.78 -238.61)"/><path class="cls-1" d="M469.66,242.15H493V350.59H474.06V267.88l.84,4.77L448,337H431.78l-26.89-62.87.84-6.26v82.71H386.79V242.15h23.34l29.77,72.34Z" transform="translate(-171.78 -238.61)"/><path class="cls-1" d="M1011,335.61V290.12h-46.1v16.56h27.69v20.26a40.47,40.47,0,0,1-11.68,6,45.26,45.26,0,0,1-14.47,2.25,37.55,37.55,0,0,1-15.08-2.94,35,35,0,0,1-11.61-8.13,35.87,35.87,0,0,1-7.5-12.3,44.3,44.3,0,0,1-2.63-15.47,40.77,40.77,0,0,1,2.71-14.85,39.49,39.49,0,0,1,7.43-12.22A34.43,34.43,0,0,1,950.88,261a32.12,32.12,0,0,1,13.84-3,48.15,48.15,0,0,1,9.36.85,42.58,42.58,0,0,1,7.82,2.32,39.71,39.71,0,0,1,6.8,3.65,69.07,69.07,0,0,1,6.35,4.8l12.06-14.39a68.55,68.55,0,0,0-8.58-6.27,54.35,54.35,0,0,0-9.36-4.56,58.87,58.87,0,0,0-10.76-2.86,75.65,75.65,0,0,0-12.93-1A55.81,55.81,0,0,0,943,245a54.18,54.18,0,0,0-29.24,30,57.61,57.61,0,0,0-4.1,21.66,60,60,0,0,0,4,22.13,51.52,51.52,0,0,0,29.09,29.47,60,60,0,0,0,23,4.25,68.43,68.43,0,0,0,13.62-1.32,66.6,66.6,0,0,0,22.66-9.06,82,82,0,0,0,8.9-6.49Z" transform="translate(-171.78 -238.61)"/><path class="cls-1" d="M696.47,241.67h20.94v92.42h56.51l-2.52,17H696.47Z" transform="translate(-171.78 -238.61)"/><path class="cls-3" d="M889.5,296.87a52.63,52.63,0,0,0-3.42-18.95A45.73,45.73,0,0,0,862,251.86a46.34,46.34,0,0,0-52.2,10.69,48.16,48.16,0,0,0-9.63,15.64,54.18,54.18,0,0,0,0,37.89,45.7,45.7,0,0,0,24.08,26.06,46.32,46.32,0,0,0,52.2-10.7,47.84,47.84,0,0,0,9.63-15.63,52.59,52.59,0,0,0,3.42-18.95Z" transform="translate(-171.78 -238.61)"/><path class="cls-3" d="M611.5,296a52.63,52.63,0,0,0-3.42-19A45.73,45.73,0,0,0,584,251a46.34,46.34,0,0,0-52.2,10.69,48.13,48.13,0,0,0-9.62,15.64,54.07,54.07,0,0,0,0,37.89,45.68,45.68,0,0,0,24.07,26.06,46.27,46.27,0,0,0,52.2-10.7,47.84,47.84,0,0,0,9.63-15.63A52.59,52.59,0,0,0,611.5,296Z" transform="translate(-171.78 -238.61)"/><path class="cls-3" d="M1127.5,297a52.63,52.63,0,0,0-3.42-19A45.73,45.73,0,0,0,1100,252a46.34,46.34,0,0,0-52.2,10.69,48.13,48.13,0,0,0-9.62,15.64,54.07,54.07,0,0,0,0,37.89,45.68,45.68,0,0,0,24.07,26.06,46.27,46.27,0,0,0,52.2-10.7,47.84,47.84,0,0,0,9.63-15.63A52.59,52.59,0,0,0,1127.5,297Z" transform="translate(-171.78 -238.61)"/></svg>